<svg width="45" height="45" viewBox="0 0 45 45" fill="none" xmlns="http://www.w3.org/2000/svg">
<path d="M36.5625 9.84375H31.6898L29.2939 6.25078C29.1656 6.05839 28.9918 5.90063 28.7879 5.79147C28.584 5.68232 28.3563 5.62514 28.125 5.625H16.875C16.6437 5.62514 16.416 5.68232 16.2121 5.79147C16.0082 5.90063 15.8344 6.05839 15.7061 6.25078L13.3084 9.84375H8.4375C7.31862 9.84375 6.24556 10.2882 5.45439 11.0794C4.66322 11.8706 4.21875 12.9436 4.21875 14.0625V33.75C4.21875 34.8689 4.66322 35.9419 5.45439 36.7331C6.24556 37.5243 7.31862 37.9688 8.4375 37.9688H36.5625C37.6814 37.9688 38.7544 37.5243 39.5456 36.7331C40.3368 35.9419 40.7812 34.8689 40.7812 33.75V14.0625C40.7812 12.9436 40.3368 11.8706 39.5456 11.0794C38.7544 10.2882 37.6814 9.84375 36.5625 9.84375ZM37.9688 33.75C37.9688 34.123 37.8206 34.4806 37.5569 34.7444C37.2931 35.0081 36.9355 35.1562 36.5625 35.1562H8.4375C8.06454 35.1562 7.70685 35.0081 7.44313 34.7444C7.17941 34.4806 7.03125 34.123 7.03125 33.75V14.0625C7.03125 13.6895 7.17941 13.3319 7.44313 13.0681C7.70685 12.8044 8.06454 12.6562 8.4375 12.6562H14.0625C14.2941 12.6564 14.5221 12.5994 14.7263 12.4902C14.9306 12.381 15.1047 12.2231 15.2332 12.0305L17.6273 8.4375H27.3709L29.7668 12.0305C29.8953 12.2231 30.0694 12.381 30.2737 12.4902C30.4779 12.5994 30.7059 12.6564 30.9375 12.6562H36.5625C36.9355 12.6562 37.2931 12.8044 37.5569 13.0681C37.8206 13.3319 37.9688 13.6895 37.9688 14.0625V33.75ZM22.5 15.4688C20.9703 15.4688 19.4749 15.9224 18.203 16.7722C16.9311 17.6221 15.9398 18.83 15.3544 20.2433C14.769 21.6566 14.6158 23.2117 14.9142 24.712C15.2127 26.2123 15.9493 27.5905 17.031 28.6722C18.1126 29.7538 19.4908 30.4905 20.9911 30.7889C22.4914 31.0873 24.0465 30.9342 25.4598 30.3488C26.8731 29.7634 28.081 28.772 28.9309 27.5001C29.7808 26.2282 30.2344 24.7328 30.2344 23.2031C30.232 21.1526 29.4164 19.1866 27.9665 17.7367C26.5165 16.2867 24.5506 15.4711 22.5 15.4688ZM22.5 28.125C21.5265 28.125 20.575 27.8363 19.7656 27.2955C18.9562 26.7547 18.3253 25.986 17.9528 25.0866C17.5803 24.1873 17.4828 23.1977 17.6727 22.2429C17.8626 21.2882 18.3314 20.4112 19.0197 19.7228C19.708 19.0345 20.585 18.5657 21.5398 18.3758C22.4945 18.1859 23.4842 18.2834 24.3835 18.6559C25.2829 19.0284 26.0516 19.6593 26.5924 20.4687C27.1332 21.2781 27.4219 22.2297 27.4219 23.2031C27.4219 24.5085 26.9033 25.7604 25.9803 26.6834C25.0573 27.6064 23.8054 28.125 22.5 28.125Z" fill="#343330"/>
</svg>
