<svg width="45" height="45" viewBox="0 0 45 45" fill="none" xmlns="http://www.w3.org/2000/svg">
<path d="M38.5506 19.1039L24.4881 5.04143C23.9607 4.51439 23.2456 4.21832 22.5 4.21832C21.7544 4.21832 21.0393 4.51439 20.5119 5.04143L6.44942 19.1039C6.18698 19.3644 5.97895 19.6745 5.83742 20.0161C5.69589 20.3577 5.62369 20.724 5.625 21.0938V37.9688C5.625 38.3417 5.77316 38.6994 6.03688 38.9631C6.30061 39.2269 6.65829 39.375 7.03125 39.375H18.2813C18.6542 39.375 19.0119 39.2269 19.2756 38.9631C19.5393 38.6994 19.6875 38.3417 19.6875 37.9688V28.125H25.3125V37.9688C25.3125 38.3417 25.4607 38.6994 25.7244 38.9631C25.9881 39.2269 26.3458 39.375 26.7188 39.375H37.9688C38.3417 39.375 38.6994 39.2269 38.9631 38.9631C39.2268 38.6994 39.375 38.3417 39.375 37.9688V21.0938C39.3763 20.724 39.3041 20.3577 39.1626 20.0161C39.0211 19.6745 38.813 19.3644 38.5506 19.1039ZM36.5625 36.5625H28.125V26.7188C28.125 26.3458 27.9768 25.9881 27.7131 25.7244C27.4494 25.4607 27.0917 25.3125 26.7188 25.3125H18.2813C17.9083 25.3125 17.5506 25.4607 17.2869 25.7244C17.0232 25.9881 16.875 26.3458 16.875 26.7188V36.5625H8.4375V21.0938L22.5 7.03128L36.5625 21.0938V36.5625Z" fill="#F85F73"/>
</svg>
