<svg width="45" height="45" viewBox="0 0 45 45" fill="none" xmlns="http://www.w3.org/2000/svg">
<path d="M29.5312 26.7187C29.5312 27.0917 29.3831 27.4494 29.1194 27.7131C28.8556 27.9768 28.498 28.125 28.125 28.125H16.875C16.502 28.125 16.1444 27.9768 15.8806 27.7131C15.6169 27.4494 15.4688 27.0917 15.4688 26.7187C15.4688 26.3458 15.6169 25.9881 15.8806 25.7244C16.1444 25.4606 16.502 25.3125 16.875 25.3125H28.125C28.498 25.3125 28.8556 25.4606 29.1194 25.7244C29.3831 25.9881 29.5312 26.3458 29.5312 26.7187ZM28.125 19.6875H16.875C16.502 19.6875 16.1444 19.8356 15.8806 20.0994C15.6169 20.3631 15.4688 20.7208 15.4688 21.0937C15.4688 21.4667 15.6169 21.8244 15.8806 22.0881C16.1444 22.3518 16.502 22.5 16.875 22.5H28.125C28.498 22.5 28.8556 22.3518 29.1194 22.0881C29.3831 21.8244 29.5312 21.4667 29.5312 21.0937C29.5312 20.7208 29.3831 20.3631 29.1194 20.0994C28.8556 19.8356 28.498 19.6875 28.125 19.6875ZM37.9688 8.43749V37.9687C37.9688 38.7147 37.6724 39.43 37.145 39.9575C36.6175 40.4849 35.9022 40.7812 35.1562 40.7812H9.84375C9.09783 40.7812 8.38246 40.4849 7.85501 39.9575C7.32757 39.43 7.03125 38.7147 7.03125 37.9687V8.43749C7.03125 7.69157 7.32757 6.9762 7.85501 6.44875C8.38246 5.92131 9.09783 5.62499 9.84375 5.62499H16.2176C17.0077 4.74033 17.9758 4.03251 19.0584 3.54788C20.1411 3.06326 21.3138 2.81274 22.5 2.81274C23.6862 2.81274 24.8589 3.06326 25.9416 3.54788C27.0242 4.03251 27.9923 4.74033 28.7824 5.62499H35.1562C35.9022 5.62499 36.6175 5.92131 37.145 6.44875C37.6724 6.9762 37.9688 7.69157 37.9688 8.43749ZM16.875 11.25H28.125C28.125 9.75815 27.5324 8.32741 26.4775 7.27251C25.4226 6.21762 23.9918 5.62499 22.5 5.62499C21.0082 5.62499 19.5774 6.21762 18.5225 7.27251C17.4676 8.32741 16.875 9.75815 16.875 11.25ZM35.1562 8.43749H30.4541C30.774 9.34068 30.9375 10.2918 30.9375 11.25V12.6562C30.9375 13.0292 30.7893 13.3869 30.5256 13.6506C30.2619 13.9143 29.9042 14.0625 29.5312 14.0625H15.4688C15.0958 14.0625 14.7381 13.9143 14.4744 13.6506C14.2107 13.3869 14.0625 13.0292 14.0625 12.6562V11.25C14.0625 10.2918 14.226 9.34068 14.5459 8.43749H9.84375V37.9687H35.1562V8.43749Z" fill="#343330"/>
</svg>
