<svg width="45" height="45" viewBox="0 0 45 45" fill="none" xmlns="http://www.w3.org/2000/svg">
<path d="M38.9883 30.927C38.0127 29.2465 36.5625 24.4916 36.5625 18.2812C36.5625 14.5516 35.0809 10.9748 32.4437 8.33756C29.8065 5.70033 26.2296 4.21875 22.5 4.21875C18.7704 4.21875 15.1935 5.70033 12.5563 8.33756C9.91908 10.9748 8.4375 14.5516 8.4375 18.2812C8.4375 24.4934 6.98555 29.2465 6.00996 30.927C5.76083 31.3542 5.62875 31.8395 5.62705 32.3341C5.62536 32.8287 5.7541 33.3149 6.00029 33.7438C6.24648 34.1728 6.60143 34.5292 7.02933 34.7772C7.45722 35.0251 7.94294 35.1559 8.4375 35.1562H15.6111C15.9356 36.7438 16.7984 38.1706 18.0537 39.1953C19.3089 40.22 20.8796 40.7797 22.5 40.7797C24.1204 40.7797 25.6911 40.22 26.9463 39.1953C28.2016 38.1706 29.0644 36.7438 29.3889 35.1562H36.5625C37.0569 35.1556 37.5424 35.0246 37.9701 34.7765C38.3977 34.5284 38.7524 34.1719 38.9984 33.7431C39.2444 33.3142 39.373 32.8281 39.3712 32.3337C39.3694 31.8393 39.2373 31.354 38.9883 30.927ZM22.5 37.9688C21.6278 37.9685 20.7771 37.6979 20.0651 37.1942C19.353 36.6905 18.8146 35.9786 18.5238 35.1562H26.4762C26.1854 35.9786 25.647 36.6905 24.9349 37.1942C24.2229 37.6979 23.3722 37.9685 22.5 37.9688ZM8.4375 32.3438C9.79102 30.0164 11.25 24.6234 11.25 18.2812C11.25 15.2976 12.4353 12.4361 14.545 10.3263C16.6548 8.21651 19.5163 7.03125 22.5 7.03125C25.4837 7.03125 28.3452 8.21651 30.4549 10.3263C32.5647 12.4361 33.75 15.2976 33.75 18.2812C33.75 24.6182 35.2055 30.0111 36.5625 32.3438H8.4375Z" fill="#343330"/>
</svg>
